<svg width="563" height="584" viewBox="0 0 563 584" fill="none" xmlns="http://www.w3.org/2000/svg">
<g id="Analytics_SVG" clip-path="url(#clip0)">
<g id="&#208;&#161;&#208;&#187;&#208;&#190;&#208;&#185; 2">
<g id="&#208;&#161;&#208;&#187;&#208;&#190;&#208;&#185; 1">
<g id="monitor">
<path id="Vector" opacity="0.4" d="M347.576 461.886L277.325 421.406C272.256 418.492 272.895 413.385 278.749 410.025L324.259 383.793L412.891 434.787L367.38 461.019C361.539 464.439 352.693 464.801 347.576 461.886Z" fill="#D6D8E5"/>
<path id="Vector_2" d="M352.753 458.875L282.502 418.396C277.433 415.481 278.073 410.374 283.926 407.014L329.473 380.782L418.056 431.825L372.546 458.056C366.668 461.429 357.822 461.79 352.753 458.875Z" fill="#B1B4C4"/>
<path id="Vector_3" d="M418.032 431.836V429.15L413.941 431.511L418.032 431.836Z" fill="#B1B4C4"/>
<path id="Vector_4" d="M279.086 413.565V410.855L283.286 412.59L279.086 413.565Z" fill="#B1B4C4"/>
<path id="Vector_5" d="M352.753 456.189L282.502 415.722C277.433 412.795 278.073 407.7 283.926 404.328L329.473 378.108L418.056 429.151L372.546 455.37C366.668 458.743 357.822 459.116 352.753 456.189Z" fill="#D6D8E5"/>
<path id="Vector_6" d="M329.678 378.229L318.708 341.929L408.269 393.188L418.032 429.151L329.678 378.229Z" fill="#9EA1AF"/>
<path id="Vector_7" d="M415.426 430.644L418.02 429.15L414.17 426.079L415.426 430.644Z" fill="#9EA1AF"/>
<path id="Vector_8" d="M326.842 379.59L315.884 343.289L405.445 394.56L415.426 430.644L326.842 379.59Z" fill="#B1B4C4"/>
<path id="Vector_9" d="M554.19 491.828L207.58 292.09C202.753 289.296 198.77 281.769 198.77 275.301V7.69614C198.77 1.22852 202.716 -1.74634 207.58 1.05991L554.19 200.797C559.018 203.591 563 211.107 563 217.574V485.191C563 491.659 559.054 494.634 554.19 491.828Z" fill="#C4C7D6"/>
<path id="Vector_10" d="M555.976 494.585L559.814 492.381L558.16 481.012L555.976 494.585Z" fill="#C4C7D6"/>
<path id="Vector_11" d="M198.106 2.69819L201.883 0.530273L207.314 3.61353C207.314 3.61353 201.533 4.49274 201.389 4.46865C201.244 4.44456 198.106 2.69819 198.106 2.69819Z" fill="#B1B4C4"/>
<path id="Vector_12" d="M551.016 493.659L204.345 293.873C199.518 291.079 195.547 283.564 195.547 277.084V9.52719C195.547 3.05958 199.494 0.0847185 204.345 2.89096L551.016 202.628C555.843 205.422 559.814 212.938 559.814 219.417V487.022C559.814 493.49 555.879 496.465 551.016 493.659Z" fill="#E4E7F2"/>
<path id="Vector_13" d="M550.401 494.007L203.742 294.27C198.915 291.464 194.932 283.948 194.932 277.481V9.87582C194.932 3.40821 198.879 0.433351 203.742 3.2396L550.401 202.977C555.228 205.771 559.211 213.286 559.211 219.754V487.371C559.211 493.802 555.264 496.813 550.401 494.007Z" fill="#D6D8E5"/>
<path id="Vector_14" d="M554.443 477.736L199.337 273.133L199.518 10.9478C199.518 8.26198 201.413 7.17802 203.742 8.53899L550.4 208.252C551.629 209.053 552.651 210.131 553.385 211.399C554.119 212.666 554.543 214.089 554.624 215.551L554.443 477.736Z" fill="white"/>
<path id="Vector_15" d="M249.458 95.2073L217.235 76.6114C216.677 76.2101 216.22 75.6842 215.902 75.0758C215.583 74.4673 215.412 73.793 215.4 73.1066V36.5652C215.4 35.2163 216.221 34.602 217.235 35.1801L249.458 53.7881C250.017 54.1855 250.475 54.7088 250.793 55.3156C251.112 55.9225 251.283 56.5957 251.292 57.2808V93.8222C251.292 95.1471 250.472 95.7974 249.458 95.2073Z" fill="#E9EAF2"/>
<path id="Vector_16" d="M294.208 120.993L261.889 102.373C261.331 101.972 260.874 101.446 260.556 100.838C260.237 100.229 260.065 99.555 260.054 98.8686V62.3513C260.054 61.0024 260.875 60.3882 261.889 60.9663L294.172 79.5742C294.743 79.9712 295.211 80.4986 295.536 81.1124C295.861 81.7262 296.035 82.4087 296.043 83.1031V119.608C296.043 120.957 295.222 121.644 294.208 120.993Z" fill="#E9EAF2"/>
<path id="Vector_17" d="M337.921 146.154L305.577 127.546C305.018 127.148 304.56 126.625 304.242 126.018C303.923 125.411 303.752 124.738 303.743 124.053V87.5117C303.743 86.1628 304.563 85.5365 305.577 86.1267L337.921 104.783C338.48 105.18 338.938 105.704 339.256 106.31C339.575 106.917 339.746 107.59 339.755 108.276V144.769C339.695 146.118 338.874 146.732 337.921 146.154Z" fill="#E9EAF2"/>
<path id="Vector_18" d="M249.458 146.78L217.235 128.184C216.677 127.782 216.22 127.257 215.902 126.648C215.583 126.04 215.412 125.365 215.4 124.679V88.1375C215.4 86.7885 216.221 86.1743 217.235 86.7524L249.458 105.348C250.016 105.75 250.473 106.275 250.791 106.884C251.11 107.492 251.281 108.167 251.292 108.853V145.394C251.292 146.743 250.472 147.37 249.458 146.78Z" fill="#E9EAF2"/>
<path id="Vector_19" d="M294.208 172.566L261.889 153.97C261.331 153.568 260.874 153.043 260.556 152.434C260.237 151.826 260.065 151.151 260.054 150.465V113.924C260.054 112.575 260.875 111.96 261.889 112.539L294.172 131.134C294.73 131.536 295.187 132.062 295.505 132.67C295.824 133.279 295.995 133.953 296.007 134.639V171.181C296.043 172.53 295.222 173.156 294.208 172.566Z" fill="#E9EAF2"/>
<path id="Vector_20" d="M298.614 170.145L266.33 151.537C265.771 151.14 265.313 150.616 264.995 150.01C264.676 149.403 264.505 148.729 264.496 148.044V111.503C264.496 110.154 265.316 109.528 266.33 110.118L298.614 128.714C299.172 129.115 299.628 129.641 299.947 130.249C300.265 130.858 300.437 131.532 300.448 132.219V168.76C300.508 170.109 299.627 170.723 298.614 170.145Z" fill="#8C50FF"/>
<path id="Vector_21" d="M337.921 197.714L305.577 179.118C305.018 178.721 304.56 178.198 304.242 177.591C303.923 176.984 303.752 176.311 303.743 175.626V139.072C303.743 137.735 304.563 137.109 305.577 137.699L337.921 156.295C338.48 156.692 338.938 157.216 339.256 157.823C339.575 158.429 339.746 159.103 339.755 159.788V196.317C339.695 197.678 338.874 198.304 337.921 197.714Z" fill="#E9EAF2"/>
<path id="Vector_22" d="M249.458 199.436L217.235 180.84C216.676 180.443 216.218 179.919 215.899 179.312C215.581 178.706 215.41 178.032 215.4 177.347V140.794C215.4 139.457 216.221 138.831 217.235 139.421L249.458 158.017C250.017 158.414 250.475 158.937 250.793 159.544C251.112 160.151 251.283 160.824 251.292 161.509V198.063C251.292 199.4 250.472 200.026 249.458 199.436Z" fill="#E9EAF2"/>
<path id="Vector_23" d="M337.921 279.854L217.235 210.324C216.677 209.923 216.22 209.397 215.902 208.789C215.583 208.18 215.412 207.506 215.4 206.819V198.389C215.4 197.04 216.221 196.413 217.235 197.004L337.921 266.545C338.48 266.943 338.938 267.466 339.256 268.073C339.575 268.68 339.746 269.353 339.755 270.038V278.469C339.695 279.818 338.874 280.444 337.921 279.854Z" fill="#E9EAF2"/>
<path id="Vector_24" d="M306.868 281.829L217.718 230.51C217.158 230.112 216.701 229.589 216.382 228.982C216.063 228.375 215.893 227.702 215.883 227.017V222.813C215.883 221.465 216.704 220.838 217.718 221.428L306.868 272.784C307.427 273.185 307.883 273.711 308.202 274.32C308.52 274.928 308.692 275.602 308.703 276.289V280.468C308.703 281.829 307.882 282.455 306.868 281.829Z" fill="#E9EAF2"/>
<path id="Vector_25" d="M306.868 297.727L217.718 246.359C217.158 245.962 216.701 245.439 216.382 244.832C216.063 244.225 215.893 243.552 215.883 242.867V238.687C215.883 237.338 216.704 236.724 217.718 237.302L306.868 288.658C307.427 289.059 307.883 289.585 308.202 290.193C308.52 290.802 308.692 291.476 308.703 292.163V296.342C308.703 297.691 307.882 298.305 306.868 297.727Z" fill="#E9EAF2"/>
<path id="Vector_26" d="M290.045 303.894L217.718 262.21C217.158 261.812 216.701 261.289 216.382 260.682C216.063 260.075 215.893 259.402 215.883 258.717V254.538C215.883 253.189 216.704 252.575 217.718 253.153L290.045 294.825C290.603 295.226 291.059 295.752 291.378 296.361C291.696 296.969 291.868 297.643 291.879 298.33V302.509C291.879 303.858 291.059 304.472 290.045 303.894Z" fill="#8C50FF"/>
<path id="Vector_27" d="M536.582 395.042L362.348 294.692C361.788 294.294 361.331 293.771 361.012 293.164C360.693 292.557 360.522 291.884 360.513 291.199V282.768C360.513 281.419 361.334 280.805 362.348 281.383L536.582 381.794C537.141 382.191 537.599 382.715 537.918 383.321C538.236 383.928 538.407 384.601 538.416 385.287V393.717C538.416 395.042 537.596 395.668 536.582 395.042Z" fill="#E9EAF2"/>
<path id="Vector_28" d="M519.408 405.063L362.903 314.878C362.344 314.48 361.886 313.957 361.567 313.35C361.249 312.743 361.078 312.07 361.068 311.385V307.206C361.068 305.857 361.889 305.243 362.903 305.821L519.408 395.994C519.966 396.395 520.423 396.921 520.741 397.53C521.06 398.138 521.232 398.812 521.243 399.499V403.678C521.243 405.027 520.422 405.641 519.408 405.063Z" fill="#E9EAF2"/>
<path id="Vector_29" d="M519.408 420.913L362.903 330.739C362.345 330.338 361.888 329.812 361.57 329.204C361.251 328.595 361.08 327.921 361.068 327.235V323.055C361.068 321.707 361.889 321.092 362.903 321.67L519.408 411.904C519.968 412.301 520.425 412.825 520.744 413.431C521.063 414.038 521.234 414.711 521.243 415.397V419.576C521.243 420.877 520.422 421.539 519.408 420.913Z" fill="#E9EAF2"/>
<path id="Vector_30" d="M490.395 420.046L362.903 346.577C362.345 346.176 361.888 345.65 361.57 345.042C361.251 344.433 361.08 343.759 361.068 343.073V338.893C361.068 337.544 361.889 336.93 362.903 337.508L490.395 410.976C490.953 411.376 491.409 411.9 491.727 412.506C492.046 413.112 492.218 413.785 492.23 414.469V418.648C492.23 420.009 491.397 420.624 490.395 420.046Z" fill="#8C50FF"/>
<path id="Vector_31" d="M294.208 225.222L261.889 206.626C261.329 206.229 260.872 205.705 260.553 205.099C260.234 204.492 260.063 203.818 260.054 203.133V166.58C260.054 165.243 260.875 164.617 261.889 165.207L294.172 183.803C294.731 184.2 295.189 184.724 295.508 185.33C295.826 185.937 295.997 186.61 296.007 187.296V223.849C296.043 225.222 295.222 225.812 294.208 225.222Z" fill="#E9EAF2"/>
<path id="Vector_32" d="M337.921 250.382L305.577 231.774C305.018 231.377 304.56 230.854 304.242 230.247C303.923 229.64 303.752 228.967 303.743 228.282V191.74C303.743 190.391 304.563 189.765 305.577 190.355L337.921 208.951C338.479 209.352 338.936 209.878 339.254 210.487C339.573 211.095 339.744 211.769 339.755 212.456V248.997C339.695 250.346 338.874 250.96 337.921 250.382Z" fill="#E9EAF2"/>
<path id="Vector_33" d="M536.582 364.932L362.348 264.485C361.788 264.088 361.331 263.564 361.012 262.958C360.693 262.351 360.522 261.677 360.513 260.992V203.735C360.513 202.386 361.334 201.76 362.348 202.35L536.582 302.737C537.14 303.138 537.597 303.664 537.915 304.272C538.234 304.881 538.405 305.555 538.416 306.242V363.499C538.416 364.848 537.596 365.462 536.582 364.932Z" fill="#E9EAF2"/>
<path id="Vector_34" d="M386.195 194.931C371.399 186.404 359.354 165.604 359.354 148.55C359.354 131.496 371.423 124.57 386.195 133.085C400.967 141.601 413.024 162.425 413.024 179.467C413.024 196.509 400.979 203.458 386.195 194.931ZM386.195 142.022C375.671 136 367.115 140.902 367.115 153.018C367.115 165.134 375.671 179.936 386.195 185.995C396.719 192.053 405.275 187.127 405.275 174.998C405.275 162.87 396.695 148.14 386.195 142.022Z" fill="#E9EAF2"/>
<path id="Vector_35" d="M386.195 194.931C371.399 186.404 359.354 165.604 359.354 148.55C359.354 131.496 371.423 124.57 386.195 133.085V142.022C375.671 136 367.115 140.902 367.115 153.018C367.115 165.134 375.671 179.936 386.195 185.995C396.719 192.053 405.275 187.127 405.275 174.998L413.024 179.467C413.011 196.521 400.979 203.458 386.195 194.931Z" fill="#8C50FF"/>
<path id="Vector_36" d="M448.783 231.015C433.987 222.488 421.955 201.676 421.955 184.634C421.955 167.592 434.023 160.642 448.783 169.17C463.543 177.697 475.612 198.497 475.612 215.551C475.612 232.605 463.579 239.543 448.783 231.015ZM448.783 178.106C438.259 172.084 429.703 176.974 429.703 189.102C429.703 201.231 438.259 216.009 448.783 222.079C459.307 228.149 467.864 223.211 467.864 211.083C467.864 198.954 459.307 184.164 448.783 178.106Z" fill="#E9EAF2"/>
<path id="Vector_37" d="M448.783 231.015C433.987 222.488 421.955 201.676 421.955 184.634C421.955 167.592 434.023 160.642 448.783 169.17V178.106C438.259 172.084 429.703 176.974 429.703 189.102C429.703 201.231 438.259 216.009 448.783 222.079C452.693 224.331 456.447 225.138 459.645 224.488L464.074 234.376C459.572 235.327 454.286 234.183 448.783 231.015Z" fill="#8C50FF"/>
<path id="Vector_38" d="M511.383 267.075C496.587 258.548 484.554 237.736 484.554 220.694C484.554 203.651 496.623 196.702 511.383 205.229C526.143 213.756 538.259 234.556 538.259 251.61C538.259 268.665 526.191 275.602 511.383 267.075ZM511.383 214.166C500.871 208.144 492.302 213.034 492.302 225.162C492.302 237.29 500.871 252.068 511.383 258.138C521.894 264.208 530.463 259.27 530.463 247.142C530.463 235.014 521.907 220.224 511.383 214.166Z" fill="#E9EAF2"/>
<path id="Vector_39" d="M488.03 237.941C485.846 232.446 484.669 226.604 484.554 220.694C484.554 203.64 496.623 196.702 511.383 205.229V214.166C500.871 208.144 492.302 213.034 492.302 225.162C492.394 229.362 493.244 233.512 494.813 237.411L488.03 237.941Z" fill="#8C50FF"/>
</g>
<path id="Vector_40" opacity="0.4" d="M409.837 577.822C424.888 577.822 437.088 570.79 437.088 562.116C437.088 553.443 424.888 546.411 409.837 546.411C394.787 546.411 382.586 553.443 382.586 562.116C382.586 570.79 394.787 577.822 409.837 577.822Z" fill="#D6D8E5"/>
<path id="Vector_41" opacity="0.4" d="M121.748 584.012C136.798 584.012 148.999 576.981 148.999 568.307C148.999 559.633 136.798 552.602 121.748 552.602C106.698 552.602 94.4971 559.633 94.4971 568.307C94.4971 576.981 106.698 584.012 121.748 584.012Z" fill="#D6D8E5"/>
<path id="Vector_42" opacity="0.4" d="M27.2509 441.543C42.3011 441.543 54.5018 434.512 54.5018 425.838C54.5018 417.164 42.3011 410.133 27.2509 410.133C12.2006 410.133 0 417.164 0 425.838C0 434.512 12.2006 441.543 27.2509 441.543Z" fill="#D6D8E5"/>
<g id="Men 14">
<path id="Vector_43" d="M423.391 558.358C421.617 559.791 418.998 558.478 418.865 558.611C416.787 560.541 414.604 562.355 412.324 564.042C411.225 564.91 409.5 566.078 409.813 567.74C410.369 570.727 415.148 569.812 416.958 568.944C418.768 568.077 420.229 566.536 421.942 565.464C423.149 564.705 424.356 564.319 424.549 562.778C424.658 561.802 423.704 558.322 423.391 558.358Z" fill="#38226D"/>
<path id="Vector_44" d="M424.525 562.115C424.284 563.585 423.101 563.994 421.894 564.741C420.157 565.813 418.636 567.366 416.826 568.27C415.015 569.173 411.009 569.956 409.838 567.824C410.478 570.703 415.172 569.799 416.958 568.896C418.745 567.993 420.229 566.487 421.943 565.415C423.15 564.657 424.356 564.271 424.55 562.729C424.558 562.524 424.55 562.319 424.525 562.115Z" fill="#9C73FF"/>
<path id="Vector_45" d="M408.003 552.649C406.229 554.094 403.176 552.516 402.995 552.649C401.156 554.519 399.205 556.276 397.154 557.912C396.055 558.779 394.33 559.947 394.643 561.609C395.199 564.584 399.978 563.669 401.788 562.814C403.598 561.959 405.059 560.405 406.772 559.333C407.979 558.574 409.186 558.129 409.379 556.647C409.488 555.672 408.317 552.612 408.003 552.649Z" fill="#38226D"/>
<path id="Vector_46" d="M409.319 556.19C409.126 557.636 407.919 558.069 406.712 558.84C404.974 559.912 403.442 561.466 401.643 562.381C399.845 563.296 395.814 564.055 394.644 561.923C395.283 564.802 399.978 563.899 401.764 562.995C403.55 562.092 405.047 560.586 406.748 559.515C407.955 558.756 409.162 558.31 409.355 556.841C409.374 556.623 409.362 556.404 409.319 556.19Z" fill="#9C73FF"/>
<path id="&#60;&#208;&#154;&#208;&#190;&#208;&#189;&#209;&#130;&#209;&#131;&#209;&#128;&#62;" d="M423.487 493.068C423.403 495.741 422.57 507.352 422.196 513.542C421.822 519.733 421.738 527.224 421.738 527.224C421.738 527.224 422.8 531.705 423.487 536.968C424.175 542.231 423.487 558.852 423.487 558.852C422.811 559.287 422.023 559.518 421.219 559.518C420.414 559.518 419.626 559.287 418.95 558.852C418.95 558.852 416.114 545.603 414.798 539.581C413.483 533.559 413.265 530.127 412.577 526.417C411.757 521.925 409.971 500.956 409.971 500.956H409.259L407.364 524.623C407.955 526.366 408.359 528.166 408.571 529.994C409.09 533.86 408.028 553.251 408.028 553.251C407.272 553.672 406.414 553.876 405.549 553.84C404.684 553.804 403.846 553.529 403.128 553.046C403.128 553.046 398.385 527.357 398.385 523.454C398.385 520.865 398.831 486.769 398.831 486.769L423.487 493.068Z" fill="#8C50FF"/>
<path id="&#60;&#208;&#154;&#208;&#190;&#208;&#189;&#209;&#130;&#209;&#131;&#209;&#128;&#62;_2" d="M417.067 441.375C417.067 441.375 416.765 447.204 416.898 447.722C417.031 448.24 419.577 449.95 420.325 450.552C421.074 451.155 416.282 455.876 413.953 456.948C411.624 458.02 404.298 455.201 404.129 451.588C403.96 447.975 405.336 444.94 406.543 444.783C407.75 444.627 417.067 441.375 417.067 441.375Z" fill="#FFCEA9"/>
<path id="Vector_47" d="M401.064 452.191C400.714 449.625 402.415 447.18 400.774 445.133C395.005 450.769 395.729 465.704 394.426 475.243C390.142 479.711 381.537 484.107 379.111 485.203C378.664 485.396 378.29 485.613 378.375 486.082C378.7 487.673 379.385 489.168 380.378 490.454C386.075 488.045 390.178 486.6 397.274 479.856C397.954 479.113 398.56 478.306 399.085 477.447C401.136 471.425 401.643 456.635 401.064 452.191Z" fill="#FFCEA9"/>
<path id="&#60;&#208;&#154;&#208;&#190;&#208;&#189;&#209;&#130;&#209;&#131;&#209;&#128;&#62;_3" d="M417.718 448.721C417.718 448.721 413.482 455.032 407.557 455.622C405.698 453.792 405.529 447.264 408.112 445.168C408.112 445.168 405.698 443.265 404.105 443.627C402.37 444.689 401.083 446.346 400.485 448.288C398.978 452.621 398.271 457.192 398.397 461.777C398.493 467.968 398.397 486.877 398.397 486.877C398.397 486.877 399.229 490.875 404.588 493.85C409.946 496.825 413.905 497.114 417.537 496.259C420.53 495.56 423.005 494.5 424.042 492.332C423.777 487.997 421.834 476.675 422.558 471.231C423.282 465.788 424.441 461.705 424.73 457.297C425.02 452.889 424.151 452.973 421.943 451.407C420.602 450.411 419.19 449.513 417.718 448.721Z" fill="#F4F4F4"/>
<path id="&#60;&#208;&#154;&#208;&#190;&#208;&#189;&#209;&#130;&#209;&#131;&#209;&#128;&#62;_4" d="M403.84 432.679C404.54 428.151 407.81 424.718 412.481 424.983C413.664 425.048 414.823 425.345 415.892 425.857C416.96 426.369 417.917 427.086 418.707 427.968C419.497 428.849 420.106 429.878 420.497 430.994C420.889 432.11 421.056 433.293 420.989 434.474C420.914 435.847 420.52 437.183 419.84 438.379C419.159 439.574 418.21 440.596 417.067 441.363C416.899 442.05 416.656 442.716 416.343 443.35C414.689 445.277 409.681 446.47 408.245 446.265C407.389 446.189 406.575 445.858 405.91 445.314C405.245 444.771 404.759 444.04 404.516 443.218C402.971 439.665 403.454 434.919 403.84 432.679Z" fill="#FFCEA9"/>
<path id="Vector_48" d="M417.067 441.363L416.632 437.424C416.632 437.424 419.867 429.066 412.227 430.668C407.183 431.728 405.915 432.185 404.383 428.813C402.85 425.441 408.257 422.394 414.689 423.237C416.903 423.469 418.95 424.522 420.423 426.188C421.896 427.855 422.688 430.012 422.642 432.234C422.473 434.715 421.81 439.749 417.067 441.363Z" fill="#3A2C6D"/>
<path id="Vector_49" d="M426.022 454.707C423.813 454.081 425.503 454.599 423.813 454.081C418.045 459.718 418.757 469.389 417.453 478.952C414.267 484.203 402.452 491.321 402.452 491.321C402.307 492.345 402.657 492.646 403.936 494.693C410.516 492.181 416.501 488.33 421.508 483.384C421.798 483.119 422.208 483.047 422.329 482.685C424.344 476.591 426.601 459.152 426.022 454.707Z" fill="#FFCEA9"/>
<path id="Vector_50" d="M373.427 466.486L382.02 495.801L400.859 503.305L393.992 474.761L373.427 466.486Z" fill="#F4F4F4"/>
<path id="Vector_51" d="M405.409 491.538C405.131 490.539 404.407 490.78 403.586 491.033C402.703 491.394 401.731 491.478 400.798 491.273C400.069 490.922 399.395 490.468 398.795 489.924C398.431 489.704 398.014 489.583 397.588 489.575C397.588 489.828 398.023 491.31 398.023 491.31C398.023 491.31 393.895 491.31 393.473 491.31C393.331 491.28 393.183 491.296 393.05 491.355C392.918 491.414 392.807 491.514 392.735 491.639C392.663 491.765 392.632 491.91 392.648 492.055C392.663 492.199 392.724 492.334 392.821 492.442C392.729 492.448 392.636 492.448 392.544 492.442C391.699 492.249 391.337 493.55 392.182 493.742C392.409 493.786 392.639 493.818 392.869 493.839C392.314 494.056 392.182 494.971 392.869 495.043H393.075C393.177 495.071 393.286 495.071 393.388 495.043H393.509C393.492 495.141 393.495 495.242 393.517 495.339C393.539 495.436 393.581 495.528 393.64 495.609C393.698 495.69 393.772 495.758 393.858 495.81C393.943 495.862 394.038 495.896 394.137 495.91C396.152 496.175 399.121 496.982 400.943 495.32C402.196 495.188 403.418 494.855 404.564 494.333C405.71 493.863 405.747 492.731 405.409 491.538Z" fill="#FFCEA9"/>
<path id="Vector_52" d="M384.795 489.141H384.506C384.603 489.05 384.673 488.933 384.706 488.804C384.739 488.675 384.734 488.539 384.692 488.412C384.65 488.285 384.573 488.173 384.469 488.089C384.366 488.005 384.24 487.952 384.107 487.937C383.685 487.937 379.437 487.058 379.437 487.058L378.918 485.311C378.918 485.215 378.182 485.661 378.157 485.673C377.799 485.908 377.498 486.221 377.277 486.588C377.055 486.955 376.919 487.366 376.878 487.793C376.851 488.391 376.944 488.989 377.151 489.552C377.358 490.114 377.676 490.63 378.085 491.068C378.857 491.823 379.889 492.254 380.969 492.273C381.476 492.273 381.971 492.273 382.418 492.369C382.519 492.376 382.62 492.362 382.716 492.328C382.812 492.294 382.899 492.241 382.974 492.172C383.048 492.104 383.108 492.021 383.149 491.928C383.191 491.836 383.213 491.736 383.214 491.635H383.347C383.446 491.658 383.55 491.658 383.649 491.635H383.866C384.59 491.635 384.65 490.743 384.156 490.43C384.385 490.43 384.614 490.43 384.856 490.43C385.737 490.478 385.652 489.129 384.795 489.141Z" fill="#FFCEA9"/>
<path id="Vector_53" d="M398.662 456.008C397.495 455.961 396.389 455.47 395.573 454.635C395.742 452.467 398.517 444.241 404.105 443.627C402.586 444.695 401.381 446.151 400.617 447.842C399.756 450.51 399.103 453.24 398.662 456.008Z" fill="#EDEDED"/>
<path id="Vector_54" d="M427.024 466.884C427.024 466.884 421.46 468.799 417.538 465.584C417.115 464.849 419.807 455.406 419.807 455.406C419.807 455.406 422.148 450.589 425.841 452.492C429.534 454.395 427.024 466.884 427.024 466.884Z" fill="#EDEDED"/>
</g>
<g id="Men 4">
<path id="Vector_55" d="M102.644 463.283C102.644 463.283 103.416 474.809 104.925 476.471C106.433 478.133 111.562 479.266 111.562 479.266L115.521 485.757C115.521 485.757 111.9 465.126 111.128 464.632C110.355 464.138 102.644 463.283 102.644 463.283Z" fill="#FFCEA9"/>
<path id="&#60;&#208;&#154;&#208;&#190;&#208;&#189;&#209;&#130;&#209;&#131;&#209;&#128;&#62;_5" d="M110.234 450.444C109.275 449.997 108.184 449.92 107.17 450.227C106.157 450.533 105.292 451.203 104.743 452.107C103.283 454.515 101.774 462.753 101.642 464.151C101.642 464.151 103.681 466.969 106.735 466.559L110.234 450.444Z" fill="#EDEDED"/>
<path id="Vector_56" d="M121.893 565.597C124.044 566.186 126.341 565.91 128.289 564.826C129.822 564.826 138.185 561.297 139.32 564.296C140.322 566.922 136.701 569.354 134.77 569.824C130.546 570.848 127.42 572.944 125.719 573.305C124.512 573.57 122.822 573.738 121.82 572.751C120.686 571.559 120.758 567.162 121.893 565.597Z" fill="#38226D"/>
<path id="Vector_57" d="M125.767 572.57C127.468 572.221 130.594 570.162 134.818 569.09C136.435 568.704 139.223 566.934 139.513 564.826C139.887 567.235 136.616 569.391 134.818 569.824C130.594 570.848 127.468 572.944 125.767 573.305C124.56 573.57 122.87 573.739 121.869 572.751C121.601 572.466 121.41 572.118 121.313 571.739C121.94 572.214 122.669 572.536 123.442 572.681C124.215 572.825 125.011 572.787 125.767 572.57Z" fill="#9C73FF"/>
<path id="Vector_58" d="M108.919 561.537C111.069 562.134 113.369 561.857 115.315 560.767C116.86 560.767 125.211 557.25 126.358 560.249C127.348 562.874 123.727 565.307 121.796 565.777C117.572 566.789 114.446 568.896 112.757 569.246C111.489 569.511 109.848 569.691 108.846 568.704C107.64 567.511 107.748 563.115 108.919 561.537Z" fill="#38226D"/>
<path id="Vector_59" d="M112.757 568.475C114.446 568.114 117.584 566.066 121.796 564.994C123.413 564.609 126.213 562.838 126.491 560.719C126.865 563.128 123.594 565.283 121.796 565.729C117.572 566.741 114.446 568.848 112.757 569.198C111.49 569.463 109.848 569.643 108.847 568.656C108.586 568.366 108.396 568.02 108.292 567.644C108.92 568.119 109.651 568.441 110.426 568.585C111.201 568.73 111.999 568.692 112.757 568.475Z" fill="#9C73FF"/>
<path id="&#60;&#208;&#154;&#208;&#190;&#208;&#189;&#209;&#130;&#209;&#131;&#209;&#128;&#62;_6" d="M108.002 538.077C108.361 534.981 109.008 531.924 109.933 528.947C109.933 528.947 109.353 521.059 109.064 513.579C108.738 505.148 105.793 497.633 108.11 490.864L133.961 496.609C133.961 496.609 132.754 530.501 132.356 534.596C132.156 537.786 131.753 540.96 131.149 544.099C129.942 550.663 128.651 565.356 128.651 565.356C125.875 566.97 121.808 565.645 121.808 565.645C121.808 565.645 121.808 547.254 121.965 542.521C122.182 536.74 122.363 537.185 122.363 537.185L121.494 522.793L120.927 515.639C120.927 515.639 120.203 520.89 119.72 525.575C119.31 529.67 118.32 533.367 117.21 540.991C116.257 547.591 115.267 561.069 115.267 561.069C112.491 562.67 108.75 561.562 108.75 561.562C108.75 561.562 107.253 543.81 108.002 538.077Z" fill="#8C50FF"/>
<path id="&#60;&#208;&#154;&#208;&#190;&#208;&#189;&#209;&#130;&#209;&#131;&#209;&#128;&#62;_7" d="M111.634 450.614C113.626 450.71 115.11 451.228 115.364 450.614C115.579 449.584 115.732 448.542 115.822 447.494C115.593 446.916 115.388 446.29 115.388 446.29C112.878 444.76 112.093 442.05 111.767 438.895C111.212 433.511 114.181 428.802 119.515 428.236C124.596 427.706 128.325 431.271 129.327 436.149C129.858 438.557 130.932 443.122 129.484 447.085C128.675 449.313 127.637 451.071 126.6 451.408C125.593 451.39 124.589 451.301 123.594 451.143C123.594 451.143 123.329 452.637 123.148 453.552C122.967 454.468 123.027 455.01 124.946 456.19C126.865 457.37 122.05 459.803 118.912 459.55C115.774 459.297 112.226 457.418 111.26 455.395C110.162 453.215 110.259 450.541 111.634 450.614Z" fill="#FFCEA9"/>
<path id="&#60;&#208;&#154;&#208;&#190;&#208;&#189;&#209;&#130;&#209;&#131;&#209;&#128;&#62;_8" d="M114.519 450.914C113.963 452.287 115.375 453.973 119.129 455.142C122.882 456.31 123.208 454.804 123.208 454.804C125.689 455.924 128.106 457.178 130.449 458.562C132.694 460.128 133.696 464.681 133.997 472.353C134.347 481.229 134.383 494.405 134.082 496.681C134.082 496.681 129.882 500.873 124.427 500.427C118.972 499.981 109.945 495.224 107.784 491.551C107.784 483.77 108.762 482.506 107.495 478.013C104.598 467.74 103.078 463.56 104.49 456.719C105.696 451.095 107.265 450.396 109.498 450.445C111.179 450.512 112.855 450.668 114.519 450.914Z" fill="#F4F4F4"/>
<path id="Vector_60" d="M129.412 503.522L126.72 472.593L132.501 469.534L134.758 471.425L133.961 499.198V499.969V500.957C133.961 500.957 134.082 503.293 129.665 506.088C129.665 506.088 129.593 505.353 129.532 504.666L129.424 503.462L129.412 503.522Z" fill="#FFCEA9"/>
<path id="&#60;&#208;&#154;&#208;&#190;&#208;&#189;&#209;&#130;&#209;&#131;&#209;&#128;&#62;_9" d="M128.724 456.647C131.705 456.647 133.551 458.165 134.336 462.754C135.12 467.343 135.542 471.1 135.542 471.1C134.169 472.621 132.265 473.561 130.22 473.726C126.6 474.123 125.562 472.293 125.562 472.293C125.562 472.293 125.176 467.535 124.982 464.295C124.789 461.056 125.031 456.72 128.724 456.647Z" fill="#EDEDED"/>
<path id="Vector_61" d="M129.134 435.462C129.134 435.462 133.792 428.392 123.691 426.947C116.45 425.911 111.719 430.56 111.176 435.654C110.657 440.472 113.65 445.518 115.81 447.518C117.931 448.056 120.178 447.785 122.11 446.759C122.228 445.442 122.272 444.119 122.243 442.796C122.243 442.796 118.706 435.329 129.134 435.462Z" fill="#3A2C6D"/>
</g>
<g id="Girl 9">
<path id="&#60;&#208;&#154;&#208;&#190;&#208;&#189;&#209;&#130;&#209;&#131;&#209;&#128;&#62;_10" d="M27.3473 284.154C26.2853 282.443 18.1752 281.323 15.508 288.176C14.4942 290.778 14.6511 297.426 13.8063 301.593C12.9615 305.761 10.9702 308.133 10.2582 311.518C9.54611 314.902 10.7047 320.587 18.8872 321.586C27.0697 322.586 33.3695 319.719 35.2764 317.118C37.1832 314.516 37.2435 308.988 35.2764 306.025C33.3092 303.063 31.7523 300.642 31.8006 296.776L27.3473 284.154Z" fill="#3A2C6D"/>
<path id="Vector_62" d="M37.0505 312.83C37.0505 312.83 38.9694 326.391 35.3488 336.027C31.7282 345.662 32.7179 333.558 32.7179 333.558L33.5989 330.679C33.5989 330.679 34.323 319.623 34.0213 316.913C33.7196 314.203 33.792 311.866 33.5989 311.65C33.4058 311.433 34.3109 310.999 34.6971 310.951C35.0833 310.903 37.0505 312.83 37.0505 312.83Z" fill="#FFCEA9"/>
<path id="&#60;&#208;&#154;&#208;&#190;&#208;&#189;&#209;&#130;&#209;&#131;&#209;&#128;&#62;_11" d="M21.9888 282.961C21.9888 282.961 28.0955 281.215 31.7885 284.503C33.0096 285.624 33.8994 287.058 34.3611 288.648C34.8229 290.239 34.8389 291.925 34.4074 293.524C33.9125 295.451 32.9229 298.077 31.3902 298.221C29.8575 298.366 21.9888 282.961 21.9888 282.961Z" fill="#3A2C6D"/>
<path id="&#60;&#208;&#154;&#208;&#190;&#208;&#189;&#209;&#130;&#209;&#131;&#209;&#128;&#62;_12" d="M19.6597 299.582C19.6597 299.582 20.058 306.363 19.9373 306.808C19.8166 307.254 17.2581 307.796 16.546 308.386C15.834 308.976 20.2511 315.865 22.4958 316.889C24.7406 317.913 31.68 315.299 32.1507 311.855C32.5973 308.675 30.1715 306.206 29.2301 305.351C28.5913 305.307 27.9501 305.307 27.3112 305.351L27.106 302.051C24.1372 301.1 19.6597 299.582 19.6597 299.582Z" fill="#FFCEA9"/>
<path id="&#60;&#208;&#154;&#208;&#190;&#208;&#189;&#209;&#130;&#209;&#131;&#209;&#128;&#62;_13" d="M18.7185 307.519C16.8116 307.82 14.6272 308.831 14.3255 309.927C13.5415 313.691 13.7326 317.592 14.8807 321.261C16.5341 325.621 17.6444 328.403 18.5978 330.282C18.5978 330.282 26.8648 333.823 33.5387 329.704C33.5387 329.704 33.9852 325.019 34.0215 322.477C40.1764 317.118 34.9145 310.518 29.7009 305.387C29.0748 305.327 28.4443 305.327 27.8182 305.387C27.8182 305.387 32.4767 310.867 29.2423 313.986C22.3149 311.867 20.9391 308.759 18.7185 307.519Z" fill="#F4F4F4"/>
<path id="&#60;&#208;&#154;&#208;&#190;&#208;&#189;&#209;&#130;&#209;&#131;&#209;&#128;&#62;_14" d="M32.3678 291.164C31.6798 286.804 28.5179 283.516 24.0163 283.769C21.7148 283.908 19.5625 284.953 18.0311 286.673C16.4997 288.393 15.7139 290.649 15.8458 292.946C15.9253 294.271 16.3109 295.559 16.9725 296.711C17.6341 297.862 18.5538 298.845 19.6595 299.582C19.8176 300.24 20.0483 300.878 20.3474 301.485C21.9526 303.34 26.1886 304.52 27.5886 304.532C28.7954 304.532 29.8454 303.424 30.9799 301.545C33.3332 297.643 32.7419 293.319 32.3678 291.164Z" fill="#FFCEA9"/>
<path id="Vector_63" d="M22.6165 283.853C19.4545 284.467 16.8597 285.358 16.0029 288.453C15.4115 290.585 14.6391 294.656 15.3753 296.366L15.8339 297.571L19.6597 299.546C19.6597 299.546 21.4458 298.052 20.8665 293.705C20.8825 293.115 21.0667 292.543 21.3975 292.054C21.6394 291.642 21.8184 291.195 21.9285 290.73C22.3807 289.552 23.2714 288.594 24.4147 288.056C27.2629 286.454 31.4386 287.839 32.0179 288.417C31.2124 286.696 29.839 285.304 28.1275 284.473C26.416 283.642 24.4704 283.423 22.6165 283.853Z" fill="#3A2C6D"/>
<path id="Vector_64" d="M16.896 421.334C18.5011 422.635 20.9872 421.732 21.1079 421.852C22.9682 423.457 24.9141 424.961 26.9371 426.357C27.9388 427.14 29.4956 428.187 29.218 429.693C28.7111 432.379 24.3906 431.548 22.7613 430.729C21.1321 429.91 19.8045 428.537 18.2718 427.585C17.1736 426.911 16.0874 426.549 15.8581 425.176C15.8098 424.297 16.5943 421.298 16.896 421.334Z" fill="#38226D"/>
<path id="Vector_65" d="M15.9422 424.574C16.1474 425.899 17.2215 426.26 18.3559 426.983C19.9249 427.947 21.3007 429.392 22.9299 430.175C24.5592 430.958 28.1798 431.68 29.2418 429.765C28.6625 432.355 24.4144 431.548 22.8093 430.729C21.2041 429.91 19.8525 428.537 18.3197 427.585C17.2215 426.911 16.1353 426.549 15.906 425.176C15.8842 424.975 15.8964 424.772 15.9422 424.574Z" fill="#9C73FF"/>
<path id="Vector_66" d="M28.0955 419.131C29.5679 420.335 31.7161 419.649 31.885 419.757C33.5921 421.219 35.3811 422.582 37.2435 423.84C38.1487 424.551 39.5727 425.514 39.3193 426.887C38.8607 429.296 34.9022 428.597 33.4178 427.839C31.9333 427.08 30.7023 425.839 29.2903 424.96C28.2886 424.346 27.299 424.021 27.1421 422.744C27.1911 421.485 27.5166 420.251 28.0955 419.131Z" fill="#38226D"/>
<path id="Vector_67" d="M27.1663 422.201C27.3594 423.406 28.3732 423.755 29.3266 424.369C30.7628 425.26 32.03 426.537 33.5144 427.296C34.9988 428.055 38.3418 428.681 39.2953 426.922C38.7763 429.331 34.8902 428.548 33.4179 427.802C31.9455 427.055 30.7024 425.802 29.2904 424.923C28.2887 424.309 27.2991 423.984 27.1422 422.707C27.1278 422.538 27.1359 422.368 27.1663 422.201Z" fill="#9C73FF"/>
<path id="Vector_68" d="M36.7245 344.831C36.0125 339.327 33.985 331.33 33.985 331.33C32.0625 332.223 29.9843 332.734 27.8662 332.836C24.7595 332.828 21.6604 332.529 18.6096 331.944C17.6113 333.678 16.5237 335.358 15.351 336.979C13.758 339.183 10.6564 344.012 11.4046 352.443C11.8994 357.959 15.0252 381.349 15.0252 381.349C13.8236 385.286 13.1857 389.373 13.1304 393.489C13.416 398.379 14.0614 403.242 15.0614 408.038L16.9079 421.286C16.9079 421.286 19.3216 423.057 21.1198 421.804L20.9026 408.797C21.1078 405.617 21.4215 400.92 21.6267 397.957C21.9646 393.08 22.8336 385.323 23.087 383.396C23.3404 381.469 23.968 378.073 24.2939 374.279C24.6197 370.485 26.0197 351.215 26.0197 351.215L26.2248 354.828C26.2248 354.828 26.4059 360.693 27.2507 367.92C28.0955 375.146 28.3972 378.35 28.3972 378.35C27.5782 379.798 26.9956 381.367 26.6714 382.999C26.5266 384.552 24.7283 396.909 25.8024 403.196L27.9989 419.179C28.5464 419.554 29.1754 419.795 29.8342 419.881C30.4929 419.967 31.1627 419.895 31.7885 419.673L33.0798 403.57C33.9487 397.439 35.7832 384.444 36.0607 382.758C36.684 379.353 37.0511 375.907 37.159 372.448C37.5866 363.242 37.4415 354.019 36.7245 344.831Z" fill="#FFCEA9"/>
<path id="Vector_69" d="M18.5977 330.234L13.8427 339.761C13.8427 339.761 6.60154 350.348 14.1082 377.567L12.6962 385.998C12.6962 385.998 26.913 395.103 36.4351 385.998C36.4351 385.998 39.7298 360.85 37.9799 349.252C37.0015 342.582 35.5209 335.995 33.5507 329.548C33.5507 329.548 31.2215 332.113 19.2253 330.415" fill="#8C50FF"/>
<path id="&#60;&#208;&#154;&#208;&#190;&#208;&#189;&#209;&#130;&#209;&#131;&#209;&#128;&#62;_15" d="M48.3347 337.002C47.1207 337.052 45.9113 337.181 44.7141 337.388C43.5737 337.745 42.3855 337.928 41.1901 337.93C39.8867 337.93 36.2541 336.123 33.1404 333.943C29.7597 331.409 26.8373 328.318 24.4992 324.802C22.0473 321.051 19.9119 317.103 18.115 312.999C17.1012 310.084 17.1253 312.071 15.3995 312.023C13.3599 312.023 12.2738 312.722 13.7944 316.684C15.3157 320.784 17.4388 324.636 20.0942 328.114C22.588 331.621 25.661 334.68 29.1819 337.159C32.2829 339.326 35.6339 341.114 39.1626 342.482C40.1764 342.892 40.8281 343.458 42.6625 344.47C44.5048 345.522 46.5754 346.113 48.6968 346.192C50.4588 346.192 51.1105 345.855 51.2312 345.493C51.3519 345.132 51.0743 344.735 50.2657 344.662C48.9796 344.643 47.7078 344.39 46.5124 343.916C46.5124 343.916 48.2623 344.169 49.3244 344.217C50.2752 344.273 51.2293 344.2 52.1605 344C53.0536 343.783 53.5484 342.531 52.7398 342.434C51.9312 342.338 51.2674 342.434 49.6985 342.374C48.8793 342.319 48.0693 342.17 47.2848 341.928C48.3392 341.936 49.3925 341.86 50.4347 341.7C51.2797 341.617 52.0835 341.295 52.7518 340.772C53.1018 340.483 53.1622 339.676 52.1363 339.688C50.8698 339.909 49.5809 339.974 48.2985 339.881C47.0313 339.7 46.1503 339.399 46.3434 339.231C46.5365 339.062 47.2848 339.231 48.3468 338.845C49.4088 338.46 50.1329 337.532 49.8916 336.99C49.6502 336.448 49.4812 336.798 48.3347 337.002Z" fill="#FFCEA9"/>
<path id="Vector_70" d="M14.6995 320.443C14.6995 320.443 19.358 320.684 22.001 317.781L19.1287 311.759C19.1287 311.759 17.8132 308.447 14.7116 309.266C11.61 310.085 11.5617 314.481 14.6995 320.443Z" fill="#EDEDED"/>
<path id="Vector_71" d="M29.7007 305.375C29.7007 305.375 33.4782 304.17 37.4849 312.601L35.9884 313.505C35.9884 313.505 32.042 307.507 29.7007 305.375Z" fill="#EDEDED"/>
</g>
<path id="Vector_72" d="M94.7988 131.28L28.0112 92.739L27.7578 92.5945C25.8751 91.5949 23.3286 91.7755 20.5166 93.3894C14.7599 96.7136 10.0894 104.783 10.0894 111.455C10.0894 114.888 11.3566 117.261 13.372 118.284L81.0648 157.271L94.7988 131.28Z" fill="#2AB7CA"/>
<path id="Vector_73" d="M95.3711 148.538C99.4436 141.499 99.446 133.891 95.3765 131.547C91.307 129.202 84.7067 133.008 80.6342 140.047C76.5617 147.086 76.5592 154.694 80.6287 157.038C84.6982 159.383 91.2986 155.577 95.3711 148.538Z" fill="#259CA5"/>
<path id="Vector_74" d="M117.838 173.12L83.0439 153.079V139.012L117.838 159.065V173.12Z" fill="#D6D8E5"/>
<path id="Vector_75" d="M117.838 159.089L83.0439 139.048L91.0575 134.423L125.851 154.476L117.838 159.089Z" fill="#C4C7D6"/>
<path id="Vector_76" d="M202.988 251.052C223.93 238.986 223.929 199.859 202.987 163.66C182.045 127.46 148.091 107.897 127.149 119.963C106.207 132.029 106.207 171.156 127.15 207.355C148.092 243.554 182.046 263.118 202.988 251.052Z" fill="url(#paint0_linear)"/>
<path id="Vector_77" d="M172.388 256.332C136.484 235.64 107.217 185.14 107.217 143.757C107.217 102.374 136.435 85.5483 172.388 106.24C208.34 126.931 237.558 177.432 237.558 218.803C237.558 260.174 208.304 277.011 172.388 256.332ZM172.388 129.942C147.816 115.779 127.83 127.293 127.83 155.608C127.83 183.923 147.816 218.478 172.388 232.689C196.959 246.901 216.945 235.327 216.945 207.024C216.945 178.72 196.959 144.094 172.388 129.942Z" fill="#259CA5"/>
<path id="Vector_78" d="M165.074 260.548C129.158 239.856 99.9038 189.356 99.9038 147.973C99.9038 106.59 129.11 89.7642 165.074 110.456C201.039 131.147 230.245 181.648 230.245 223.019C230.245 264.39 200.978 281.239 165.074 260.548ZM165.074 134.158C140.503 119.995 120.517 131.509 120.517 159.824C120.517 188.139 140.503 222.693 165.074 236.905C189.646 251.117 209.631 239.543 209.631 211.24C209.631 182.936 189.646 148.31 165.074 134.158Z" fill="#2AB7CA"/>
</g>
</g>
</g>
<defs>
<linearGradient id="paint0_linear" x1="225.039" y1="220.054" x2="105.224" y2="150.733" gradientUnits="userSpaceOnUse">
<stop stop-color="white" stop-opacity="0.4"/>
<stop offset="0.89" stop-color="white" stop-opacity="0"/>
</linearGradient>
<clipPath id="clip0">
<rect width="563" height="584" fill="white"/>
</clipPath>
</defs>
</svg>
